<?xml version="1.0" encoding="utf-8"?>
<!-- Generator: Adobe Illustrator 21.0.0, SVG Export Plug-In . SVG Version: 6.00 Build 0)  -->
<svg version="1.1" id="Layer_1" xmlns="http://www.w3.org/2000/svg" xmlns:xlink="http://www.w3.org/1999/xlink" x="0px" y="0px"
	 width="33.6px" height="32.7px" viewBox="0 0 33.6 32.7" style="enable-background:new 0 0 33.6 32.7;" xml:space="preserve">
<style type="text/css">
	.st0{fill:#0E0E14;}
</style>
<path class="st0" d="M33.6,16.8C33.6,7.5,26.1,0,16.8,0S0,7.5,0,16.8c0,7.4,4.7,13.6,11.3,15.9c0.4-0.3,0.9-0.6,0.9-1.3
	c0-0.9,0-3.3,0-3.3s-0.7,0.1-1.8,0.1c-2.6,0-3.5-1.7-3.8-2.6c-0.5-1.2-1.2-1.8-1.9-2.2c-0.4-0.3-0.5-0.6,0-0.7
	c2.3-0.4,2.9,2.6,4.5,3.1c1.1,0.3,2.5,0.2,3.2-0.3c0.1-0.9,0.8-1.7,1.3-2.2c-3.9-0.4-6.3-1.7-7.5-3.9l-0.1-0.2l-0.3-0.7l-0.1-0.3
	c-0.4-1.1-0.5-2.4-0.5-3.8C5.1,12,5.9,11,7,9.7C6.2,6.8,7.3,4.8,7.3,4.8S9,4.5,12.2,6.8C13.9,6,18.6,6,20.8,6.6
	c1.4-0.9,3.8-2.2,4.8-1.8c0.3,0.4,0.9,1.7,0.4,4.5c0.3,0.6,2.1,1.9,2.1,5.6c0,1.4-0.2,2.5-0.4,3.5l-0.1,0.5c0,0-0.1,0.2-0.2,0.5
	l-0.1,0.2c-1.2,2.6-3.6,3.5-7.4,3.9c1.3,0.8,1.6,1.8,1.6,4.4c0,2.7,0,3,0,3.6c0,0.5,0.4,0.9,0.8,1.2C28.8,30.5,33.6,24.2,33.6,16.8"
	/>
</svg>
