<?xml version="1.0" encoding="utf-8"?>
<!-- Generator: Adobe Illustrator 21.0.0, SVG Export Plug-In . SVG Version: 6.00 Build 0)  -->
<svg version="1.1" id="Layer_1" xmlns="http://www.w3.org/2000/svg" xmlns:xlink="http://www.w3.org/1999/xlink" x="0px" y="0px"
	 width="44px" height="13px" viewBox="0 0 44 13" style="enable-background:new 0 0 44 13;" xml:space="preserve">
<style type="text/css">
	.st0{fill:none;stroke:#00FFB8;stroke-width:2;stroke-linecap:round;stroke-miterlimit:10;}
</style>
<g>
	<path class="st0" d="M19.3,10.5c-1,0.9-2.3,1.5-3.8,1.5h-9C3.5,12,1,9.5,1,6.5v0C1,3.5,3.5,1,6.5,1h9c3,0,5.5,2,6.5,5.5"/>
	<path class="st0" d="M24.7,2.6c1-1,2.3-1.6,3.8-1.6h9c3,0,5.5,2.5,5.5,5.5v0c0,3-2.5,5.5-5.5,5.5h-9c-3,0-5.5-2-6.5-5.5"/>
</g>
</svg>
