<?xml version="1.0" encoding="utf-8"?>
<!-- Generator: Adobe Illustrator 21.0.0, SVG Export Plug-In . SVG Version: 6.00 Build 0)  -->
<svg version="1.1" id="Layer_1" xmlns="http://www.w3.org/2000/svg" xmlns:xlink="http://www.w3.org/1999/xlink" x="0px" y="0px"
	 width="31.2px" height="31.2px" viewBox="0 0 31.2 31.2" style="enable-background:new 0 0 31.2 31.2;" xml:space="preserve">
<style type="text/css">
	.st0{fill:#0E0E14;}
</style>
<path class="st0" d="M25.6,24.2h-4.1v-6.4c0-1.5,0-3.5-2.1-3.5c-2.1,0-2.4,1.7-2.4,3.4v6.5h-4.1V11.1h3.9v1.8h0.1
	c0.5-1,1.9-2.1,3.8-2.1c4.1,0,4.9,2.7,4.9,6.2V24.2z M8.3,9.3C7,9.3,6,8.3,6,7C6,5.7,7,4.6,8.3,4.6c1.3,0,2.4,1.1,2.4,2.4
	C10.7,8.3,9.6,9.3,8.3,9.3 M10.4,24.2H6.3V11.1h4.1V24.2z M15.6,0C7,0,0,7,0,15.6s7,15.6,15.6,15.6s15.6-7,15.6-15.6S24.2,0,15.6,0"
	/>
</svg>
